<?xml version="1.0" encoding="UTF-8" standalone="no"?>
<!-- Created with Inkscape (http://www.inkscape.org/) -->

<svg
   xmlns:dc="http://purl.org/dc/elements/1.1/"
   xmlns:cc="http://creativecommons.org/ns#"
   xmlns:rdf="http://www.w3.org/1999/02/22-rdf-syntax-ns#"
   xmlns:svg="http://www.w3.org/2000/svg"
   xmlns="http://www.w3.org/2000/svg"
   xmlns:xlink="http://www.w3.org/1999/xlink"
   xmlns:sodipodi="http://sodipodi.sourceforge.net/DTD/sodipodi-0.dtd"
   xmlns:inkscape="http://www.inkscape.org/namespaces/inkscape"
   width="1690.9581"
   height="858.96204"
   id="svg2"
   sodipodi:version="0.32"
   inkscape:version="0.48.4 r9939"
   sodipodi:docname="Archery-new.svg"
   inkscape:output_extension="org.inkscape.output.svg.inkscape"
   version="1.1">
  <defs
     id="defs4">
    <inkscape:perspective
       sodipodi:type="inkscape:persp3d"
       inkscape:vp_x="0 : 526.18109 : 1"
       inkscape:vp_y="0 : 1000 : 0"
       inkscape:vp_z="744.09448 : 526.18109 : 1"
       inkscape:persp3d-origin="372.04724 : 350.78739 : 1"
       id="perspective10" />
    <inkscape:perspective
       sodipodi:type="inkscape:persp3d"
       inkscape:vp_x="0 : 526.18109 : 1"
       inkscape:vp_y="0 : 1000 : 0"
       inkscape:vp_z="744.09448 : 526.18109 : 1"
       inkscape:persp3d-origin="372.04724 : 350.78739 : 1"
       id="perspective2491" />
    <linearGradient
       gradientUnits="userSpaceOnUse"
       y2="313.08206"
       x2="462.53625"
       y1="313.08206"
       x1="456.2981"
       id="linearGradient3183"
       xlink:href="#linearGradient3177"
       inkscape:collect="always" />
    <inkscape:perspective
       id="perspective2489"
       inkscape:persp3d-origin="372.04724 : 350.78739 : 1"
       inkscape:vp_z="744.09448 : 526.18109 : 1"
       inkscape:vp_y="0 : 1000 : 0"
       inkscape:vp_x="0 : 526.18109 : 1"
       sodipodi:type="inkscape:persp3d" />
    <linearGradient
       id="linearGradient3177"
       inkscape:collect="always">
      <stop
         id="stop3179"
         offset="0"
         style="stop-color:#000000;stop-opacity:1;" />
      <stop
         id="stop3181"
         offset="1"
         style="stop-color:#000000;stop-opacity:0;" />
    </linearGradient>
    <inkscape:perspective
       id="perspective2840"
       inkscape:persp3d-origin="372.04724 : 350.78739 : 1"
       inkscape:vp_z="744.09448 : 526.18109 : 1"
       inkscape:vp_y="0 : 1000 : 0"
       inkscape:vp_x="0 : 526.18109 : 1"
       sodipodi:type="inkscape:persp3d" />
  </defs>
  <sodipodi:namedview
     id="base"
     pagecolor="#ffffff"
     bordercolor="#666666"
     borderopacity="1.0"
     gridtolerance="10000"
     guidetolerance="10"
     objecttolerance="10"
     inkscape:pageopacity="0.0"
     inkscape:pageshadow="2"
     inkscape:zoom="0.53579091"
     inkscape:cx="845.47906"
     inkscape:cy="429.48102"
     inkscape:document-units="px"
     inkscape:current-layer="layer1"
     showgrid="false"
     inkscape:window-width="1024"
     inkscape:window-height="747"
     inkscape:window-x="0"
     inkscape:window-y="0"
     fit-margin-top="50"
     fit-margin-left="50"
     fit-margin-right="50"
     fit-margin-bottom="50"
     showborder="true"
     borderlayer="false"
     inkscape:showpageshadow="true"
     inkscape:window-maximized="0" />
  <metadata
     id="metadata7">
    <rdf:RDF>
      <cc:Work
         rdf:about="">
        <dc:format>image/svg+xml</dc:format>
        <dc:type
           rdf:resource="http://purl.org/dc/dcmitype/StillImage" />
      </cc:Work>
    </rdf:RDF>
  </metadata>
  <g
     inkscape:groupmode="layer"
     id="layer4"
     inkscape:label="-1"
     style="display:none"
     sodipodi:insensitive="true"
     transform="translate(1053.3492,-464.28125)">
    <image
       sodipodi:absref="/mnt/D/Web/Git/Rplus/svg/NTU-Archery/g3483.png"
       xlink:href="g3483.png"
       y="514.52802"
       x="-1018.5443"
       id="image2842"
       height="757"
       width="1606"
       style="opacity:0.4637681;fill:none" />
  </g>
  <g
     inkscape:label="Layer 1"
     inkscape:groupmode="layer"
     id="layer1"
     style="display:inline"
     transform="translate(1053.3492,-464.28125)">
    <flowRoot
       xml:space="preserve"
       id="flowRoot3318"
       style="font-size:40px;font-style:normal;font-weight:normal;fill:#000000;fill-opacity:1;stroke:none;font-family:Bitstream Vera Sans"
       transform="translate(-1734.6623,468.84763)"><flowRegion
         id="flowRegion3320"><rect
           id="rect3322"
           width="317.14285"
           height="357.14285"
           x="77.142853"
           y="269.80878" /></flowRegion><flowPara
         id="flowPara3324" /></flowRoot>    <flowRoot
       xml:space="preserve"
       id="flowRoot3326"
       style="font-size:40px;font-style:normal;font-weight:normal;fill:#000000;fill-opacity:1;stroke:none;font-family:Bitstream Vera Sans"
       transform="translate(-1734.6623,468.84763)"><flowRegion
         id="flowRegion3328"><rect
           id="rect3330"
           width="368.57141"
           height="474.28571"
           x="-14.285714"
           y="189.80878" /></flowRegion><flowPara
         id="flowPara3334"
         style="font-size:144px;font-style:italic;font-variant:normal;font-weight:normal;font-stretch:normal;text-align:start;line-height:89.99999762%;writing-mode:tb-rl;text-anchor:start;font-family:Scriptina;-inkscape-font-specification:Scriptina Italic">Archery</flowPara></flowRoot>    <flowRoot
       xml:space="preserve"
       id="flowRoot3336"
       style="font-size:40px;font-style:normal;font-weight:normal;fill:#000000;fill-opacity:1;stroke:none;font-family:Bitstream Vera Sans"
       transform="translate(-1734.6623,468.84763)"><flowRegion
         id="flowRegion3338"><rect
           id="rect3340"
           width="300"
           height="48.571426"
           x="-114.28571"
           y="132.66592" /></flowRegion><flowPara
         id="flowPara3342" /></flowRoot>    <flowRoot
       xml:space="preserve"
       id="flowRoot3344"
       style="font-size:40px;font-style:normal;font-weight:normal;fill:#000000;fill-opacity:1;stroke:none;font-family:Bitstream Vera Sans"
       transform="translate(-1734.6623,468.84763)"><flowRegion
         id="flowRegion3346"><rect
           id="rect3348"
           width="234.28571"
           height="617.14282"
           x="48.571426"
           y="212.66592" /></flowRegion><flowPara
         id="flowPara3350" /></flowRoot>    <flowRoot
       xml:space="preserve"
       id="flowRoot3352"
       style="font-size:40px;font-style:normal;font-weight:normal;fill:#000000;fill-opacity:1;stroke:none;font-family:Bitstream Vera Sans"
       transform="translate(-1734.6623,468.84763)"><flowRegion
         id="flowRegion3354"><rect
           id="rect3356"
           width="605.71429"
           height="754.28571"
           x="-74.285713"
           y="106.95164" /></flowRegion><flowPara
         id="flowPara3358" /></flowRoot>    <g
       id="g3256"
       inkscape:export-xdpi="90"
       inkscape:export-ydpi="90">
      <path
         sodipodi:nodetypes="cccsscssscscscssscssscssscccscscsccccccscccsccscscccccssssccccsccccscsccscssscscscssscssscssssscccccscscscccsscscsscscsccscccssccccssczzcscccccssscczssscsccczzzccsscscscsccccccsccscscccccssssccccsccccscccssccsccccccsccscscscscsccsssccsscsscccsccscccsscccsccc"
         id="path2667"
         d="m 144.7274,893.60047 c -33.2914,18.03581 -62.5765,14.2858 -73.7483,18.92857 -9.8657,6.86308 21.1929,-29.41381 -3.3488,-0.44646 -2.9183,4.22882 -5.4379,8.60971 -7.5588,13.1427 -2.121,4.53306 -3.315,9.21513 -3.5821,14.04621 -0.2591,4.43163 0.34,8.05804 1.7971,10.87926 1.4571,2.82123 3.4465,4.98634 5.9682,6.49528 2.5216,1.50897 5.4399,2.51546 8.7549,3.01946 3.3149,0.50402 6.6967,0.65459 10.1452,0.45176 8.7509,-1.00802 18.1008,-2.9211 28.0498,-5.73928 9.9488,-2.81813 18.5014,-5.73923 25.6576,-8.76332 2.1289,-1.00186 3.7237,-1.1509 4.7842,-0.44715 1.0604,0.7038 0.5301,1.55969 -1.5907,2.56768 -2.9224,1.6104 -6.373,3.3729 -10.3517,5.28751 -3.9788,1.91463 -8.3563,3.77702 -13.1323,5.58713 -4.7762,1.81015 -9.7487,3.47124 -14.9174,4.98326 -5.1688,1.51203 -10.1413,2.56923 -14.9173,3.17158 -3.9829,0.60851 -8.3604,0.25814 -13.1324,-1.05105 -4.7721,-1.30919 -9.1476,-3.273 -13.1263,-5.8914 -3.9788,-2.61838 -7.2958,-5.69008 -9.951,-9.21509 -2.6552,-3.52499 -3.8492,-7.30352 -3.5821,-11.33563 0.7933,-11.07589 4.8368,-22.15183 12.1306,-33.22782 16.4149,-20.8486 19.8843,-25.36606 26.6594,-30.96437 10.9382,-9.03838 21.4885,-17.82466 33.0282,-24.77334 11.5396,-6.94848 21.952,-11.83337 31.2372,-14.65473 5.0351,-1.21073 16.6132,-3.58552 20.592,-2.07362 3.9787,1.51215 8.6126,3.07496 10.8712,5.99441 11.9773,27.37987 -14.8136,46.35565 -34.0832,54.30968 -10.3457,3.82626 -21.4341,9.40168 -34.6939,11.01197 m 99.588,-25.43502 c 5.7028,-2.21571 10.145,-4.43304 13.3266,-6.65201 1.3275,-1.40744 2.4547,-1.90993 3.3818,-1.50743 0.9267,0.40269 -0.1764,0.82774 -0.6011,2.71521 l -6.4286,28.57143 m -625.7442,68.91574 c -1.3195,1.21084 -21.8108,0.70576 -22.078,-0.50508 -0.5342,-1.00802 -0.4007,-2.01605 0.4007,-3.02407 25.7264,-30.20987 43.2322,-53.47116 52.5174,-69.78396 1.5947,-3.02399 2.3921,-5.54095 2.3921,-7.55094 0,-0.40558 -0.4008,-1.51502 -1.2021,-3.3283 -0.2672,-0.8051 -0.2672,-1.50887 0,-2.11131 3.1813,-0.80511 13.1303,-5.03387 29.8468,-12.68633 0.2671,-0.40556 0.7973,-0.6084 1.5907,-0.6085 1.5947,10e-5 2.6552,0.5041 3.1814,1.51204 1.0604,1.21095 0.9268,2.3173 -0.4007,3.3191 -8.4838,8.86329 -15.7107,16.56788 -21.6809,23.1138 -5.9702,6.54606 -10.4124,12.03483 -13.3266,16.46639 -0.8015,1.2109 -1.2022,2.21892 -1.2021,3.02407 -1e-4,1.00192 1.4611,1.10025 4.3835,0.29502 2.388,-0.80513 3.9787,-1.61032 4.7721,-2.41555 10.3455,-9.4655 23.743,-19.23224 40.1925,-29.30022 16.9754,-10.47351 30.2352,-17.22232 39.7796,-20.24648 8.2245,-0.1966 14.3283,0.40884 18.3112,1.81628 0.267,0.20292 0.4006,0.40269 0.4007,0.59927 -10e-5,0.60861 -0.4656,1.46604 -1.3964,2.57231 -0.9311,1.10644 -1.9936,2.11293 -3.1875,3.01946 -1.1941,0.90669 -2.4529,1.61199 -3.7764,2.11591 -1.3236,0.50411 -2.3861,0.55326 -3.1874,0.14751 -5.3025,-1.80696 -12.4626,-0.90036 -21.4805,2.71982 -39.2616,16.51563 -74.2772,43.90735 -105.0469,82.17524 0,0.6085 -1.0604,1.31534 -3.1813,2.12053 -2.121,0.60235 -4.5091,1.35683 -7.1643,2.26344 -2.6552,0.90659 6.7363,4.28055 10.5424,4.28055 l 0,0 z m 254.0268,-97.89042 c -16.8877,13.24947 -17.8804,5.13893 -7.1582,-3.17158 9.9086,-5.60048 0.184,-25.18248 -13.7037,-25.37244 -3.052,0.10154 -6.5653,0.95744 -10.54,2.56769 -9.8195,4.22889 -19.7016,9.81757 -29.6465,16.76602 -9.9449,6.94869 -20.1487,13.47483 -28.4565,21.90142 l -4.772,4.84034 c -6.0958,6.2449 -12.327,13.59606 -18.6938,22.05354 -6.3669,8.45759 -10.0805,17.52055 -11.141,27.18891 -0.2671,4.43164 0.3279,8.05651 1.785,10.87464 1.4571,2.81818 3.4465,4.98327 5.9682,6.49529 2.5216,1.51205 5.4399,2.52007 8.7549,3.02407 3.3149,0.504 6.6967,0.6546 10.1452,0.45176 8.7509,-0.80519 18.1008,-2.61838 28.0498,-5.43962 9.9489,-2.82121 18.639,-5.8422 26.0704,-9.06298 2.1209,-1.008 3.6448,-1.15857 4.5718,-0.45176 0.9268,0.70686 0.3298,1.56122 -1.7911,2.56308 -2.9224,1.61653 -6.373,3.38056 -10.3516,5.29211 -3.9789,1.91157 -8.3543,3.77393 -13.1264,5.58715 -4.7721,1.81321 -9.6778,3.47428 -14.7169,4.98324 -5.0393,1.50896 -10.0806,2.56769 -15.1238,3.1762 -3.9829,0.60233 -8.2936,0.24892 -12.9321,-1.06029 -4.6385,-1.30919 -9.0139,-3.22227 -13.1262,-5.73925 -4.1124,-2.51697 -7.4962,-5.58866 -10.1514,-9.21509 -2.6552,-3.62641 -3.8492,-7.45258 -3.5821,-11.47855 0.5343,-7.25279 2.5905,-14.60551 6.1685,-22.05813 3.5781,-7.45254 8.1538,-14.70229 13.7274,-21.74929 5.5735,-7.04685 11.8735,-13.74342 18.9002,-20.08975 7.0265,-6.34612 14.2534,-12.08693 21.6808,-17.2224 7.4273,-5.13527 14.8545,-9.46544 22.282,-12.99056 7.4271,-3.52488 14.3263,-6.09258 20.6972,-7.70306 5.0351,-1.21073 9.874,-1.31215 14.5167,-0.30425 4.6424,1.00815 8.3561,2.72148 11.1409,5.13998 5.9166,11.4087 13.2227,24.77968 4.5543,30.20356 z M 2.6505,731.56526 c -13.2599,16.91519 -87.7334,140.13511 -101.5275,158.46378 -13.7942,18.32884 -28.1185,37.76396 -42.9731,58.30543 1.3276,-0.80517 3.0518,-2.11436 5.1728,-3.92759 2.1209,-1.8132 5.0392,-4.12733 8.7549,-6.94244 8.4837,-6.44762 17.5017,-12.89373 27.054,-19.33833 9.5522,-6.44452 19.3676,-12.89063 29.4462,-19.33834 24.4068,-14.70226 40.9856,-22.35462 49.7366,-22.95706 1.0604,-1.00794 6.2332,-2.41854 15.5185,-4.23184 1.5945,-0.19661 3.5839,0.45952 5.9681,1.9684 2.3839,1.50905 3.5759,3.06872 3.5761,4.67899 -2e-4,0.80527 -0.1298,1.3093 -0.3886,1.51205 -4.5092,4.22884 -9.2853,9.3135 -14.3284,15.254 -5.0435,5.94062 -10.3499,12.63874 -15.9192,20.09434 -12.9928,17.92313 -19.4892,30.5111 -19.4891,37.76392 -1e-4,5.2368 3.578,7.85518 10.7342,7.85518 13.0007,0 34.2221,-8.4606 63.6644,-25.38186 0.7931,-0.39948 1.5217,-0.70064 2.1857,-0.90352 0.6636,-0.20279 1.1291,-0.40256 1.3964,-0.59927 0.2669,0.19671 0.4005,0.39648 0.4007,0.59927 -2e-4,4e-5 0.1334,0.10146 0.4007,0.30425 l -2.7928,2.11132 c -34.4856,21.35285 -59.4186,32.02925 -74.7993,32.02925 -4.7762,0 -9.6859,-1.81321 -14.7291,-5.43962 -6.0958,-3.62642 -8.4798,-7.75683 -7.1521,-12.39128 5.0351,-15.90704 19.2259,-35.54193 42.5725,-58.9047 1.0603,-1.00796 1.5905,-2.31715 1.5906,-3.92759 -10e-5,-2.82116 -1.9915,-4.23178 -5.9742,-4.23185 -2.3882,7e-5 -5.0393,0.70384 -7.9535,2.1113 -14.8547,6.04206 -35.5459,18.73145 -62.0737,38.06816 -22.2779,16.31278 -39.387,29.90875 -51.3273,40.78799 -0.5262,-0.80519 -1.9834,0 -4.3714,2.41557 -0.5343,1.008 -1.1981,1.51202 -1.9914,1.51202 -2.121,0 -3.1814,-1.61344 -3.1814,-4.84035 0,-1.00802 0.1295,-1.81321 0.3885,-2.41556 10.6128,-17.1179 23.2797,-35.99984 38.0008,-56.64587 14.7209,-20.64591 103.8141,-158.16715 119.2678,-177.85434 15.4537,-19.68719 9.5081,-11.18326 30.4082,-38.20352 21.1704,-27.36961 76.4866,-81.58327 113.7528,-107.26038 37.2658,-25.67659 75.2665,-43.65347 114.0022,-53.93069 20.6827,-5.63597 41.2404,-8.45412 61.6729,-8.45446 33.9507,3.4e-4 62.3323,7.25009 85.1449,21.74929 21.7512,14.10031 32.627,30.91702 32.6276,50.45022 -6e-4,14.90546 -6.7641,29.00543 -20.2906,42.30001 -14.596,14.70259 -36.4813,27.18913 -65.6557,37.45967 -106.6379,38.06525 -213.6223,47.35985 -316.3784,57.4548 -6.0196,0.59138 -11.6304,1.29937 -18.0563,1.79882 -4.4966,0.34948 -12.6203,1.07243 -12.085,1.07243 l 0,0 z m 5.3641,-5.03078 c 4.5089,0.19681 8.3461,-0.68212 14.2148,-1.54729 5.8918,-0.86859 12.3735,-0.96185 17.6522,-1.46352 26.3044,-2.49985 44.7588,-3.93213 67.1745,-6.04666 22.4152,-2.11423 46.6757,-5.00583 70.2814,-9.03191 29.9761,-5.43949 57.64,-9.60961 85.4917,-17.86755 27.851,-8.25761 54.7735,-18.12729 80.7674,-29.60907 55.1761,-24.37055 82.7644,-49.94906 82.765,-76.73564 -6e-4,-17.52329 -11.1436,-32.02587 -33.429,-43.50778 -22.2784,-12.08364 -48.2719,-18.12561 -77.9807,-18.12595 -19.364,3.4e-4 -25.0667,-1.20161 -56.5001,8.76795 -31.4335,9.96955 -87.272,37.00179 -128.1242,68.72369 -40.8521,31.7219 -68.3087,53.57547 -116.5912,118.72338 l -5.7218,7.72035 z m 151.3023,150.0673 c 12.4,-9.5654 17.9922,-31.35357 0.4283,-32.6436 -3.0384,-0.22316 -6.5633,0.95591 -10.546,2.57229 -9.8114,4.22891 -19.7563,9.81757 -29.8347,16.76604 -10.0785,6.94869 -26.1482,18.32357 -39.3712,31.24002 -5.8416,5.70619 19.7735,6.53905 27.2009,5.33117 7.4272,-1.20769 14.4578,-2.97029 21.0919,-5.28749 6.6339,-2.31713 -22.0741,11.78625 18.1049,-8.00731 l 12.9259,-9.97112 z m 10.9257,94.39473 c -1.3195,1.21084 -2.1129,1.21084 -2.38,0 -0.5343,-1.00802 -0.4007,-2.01605 0.4007,-3.02407 25.7264,-30.20987 43.2322,-53.47116 52.5174,-69.78396 13.9217,-18.32009 -4.4479,-9.58325 31.0368,-25.67688 0.2671,-0.40556 0.7973,-0.6084 1.5907,-0.6085 1.5946,10e-5 2.6551,0.5041 3.1814,1.51204 1.0604,1.21095 0.9268,2.3173 -0.4007,3.3191 -8.4838,8.86329 -15.7107,16.56788 -21.6809,23.1138 -5.9702,6.54606 -10.4124,12.03483 -13.3266,16.46639 -0.8015,1.2109 -1.2022,2.21892 -1.2022,3.02407 0,1.00192 1.4612,1.10025 4.3835,0.29502 2.3881,-0.80513 3.9788,-1.61032 4.7722,-2.41555 10.3455,-9.4655 23.743,-19.23224 40.1924,-29.30022 16.9755,-10.47351 30.2353,-17.22232 39.7796,-20.24648 8.2246,-0.1966 14.3283,0.40884 18.3113,1.81628 0.267,0.20292 0.4005,0.40269 0.4007,0.59927 -2e-4,0.60861 -0.4656,1.46604 -1.3964,2.57231 -0.9311,1.10644 -1.9936,2.11293 -3.1875,3.01946 -1.1942,0.90669 -2.453,1.61199 -3.7764,2.11591 -1.3237,0.50411 -2.3862,0.55326 -3.1875,0.14751 -5.3024,-1.80696 -12.4626,-0.90036 -21.4805,2.71982 -39.2616,16.51563 -74.2771,43.90735 -105.0468,82.17524 0,0.6085 -1.0605,1.31534 -3.1814,2.12053 -2.1209,0.60235 -4.509,1.35683 -7.1642,2.26344 -2.6552,0.90659 -5.7071,2.16509 -9.1556,3.77547 l 0,0 z m 221.4228,-3.92759 c 4.2499,-8.86322 8.7589,-21.15 13.527,-36.8604 2.1289,-6.84712 3.7884,-12.58637 4.9785,-17.2178 1.1899,-4.6313 2.052,-8.3576 2.5865,-11.1789 -13.001,8.66044 -29.1832,17.92624 -48.5467,27.79743 -25.4594,13.092 -45.7498,21.85379 -60.8716,26.28537 -1.5947,0.39954 -2.7888,0.59929 -3.5821,0.59929 -2.388,0 -4.3774,-0.70531 -5.9681,-2.11594 -1.5907,-1.41058 -2.123,-2.81966 -1.5968,-4.22722 1.5947,-4.02591 13.6646,-21.54948 36.2097,-52.57077 0.5342,-0.80511 0.601,-2.5169 0.2003,-5.13537 -0.4008,-2.61832 -0.2004,-4.52986 0.6011,-5.73466 1.0604,-1.41361 6.0996,-3.6294 15.1177,-6.64739 9.5522,-3.22068 15.3888,-4.93247 17.5098,-5.13539 3.7075,-0.20273 5.8285,1.40763 6.3628,4.83114 -5.5696,1.81327 -14.8547,9.66846 -27.8554,23.56556 -10.8719,12.08401 -18.8294,21.95216 -23.8727,29.60447 -0.7933,1.6104 -1.19,2.9196 -1.19,3.9276 0,2.01607 1.0605,3.32526 3.1815,3.92759 2.6551,0.60238 5.0432,0.60238 7.1642,0 6.0956,-1.81319 13.4541,-4.58217 22.0755,-8.30695 8.6212,-3.72474 18.5054,-8.50667 29.6525,-14.34588 8.7508,-4.63436 16.2429,-8.76479 22.4762,-12.39128 6.2332,-3.62634 11.2077,-6.74875 14.9235,-9.36721 1.3274,-1.81313 2.8534,-3.37434 4.5778,-4.68361 1.7241,-1.30913 3.5131,-2.06206 5.3671,-2.25883 4.5088,-0.20275 7.8906,0.60242 10.1452,2.41557 2.2544,1.81328 3.1185,3.72482 2.5925,5.73464 -1.0606,1.00811 -2.0563,2.06682 -2.9871,3.1762 -0.9311,1.1095 -2.0604,2.57082 -3.3879,4.38397 -5.3024,14.49958 -13.6566,34.73988 -25.0626,60.72097 40.3219,-5.64245 78.9155,-8.46367 115.7811,-8.46369 13.0005,2e-5 23.035,1.07457 30.2475,1.8163 7.1145,0.73163 11.7793,0.13219 23.1963,5.89087 6.5596,3.30865 10.4129,10.71858 4.5614,17.81005 -8.3516,10.12124 -15.4412,21.45025 -56.8697,22.94645 -3e-4,-1.2109 0.7951,-4.1976 3.7149,-4.9098 18.0082,-1.26265 36.9759,-4.35432 47.1326,-18.92657 9.6822,-13.89142 -9.3227,-17.14417 -22.5369,-17.97989 -3.7057,-0.23436 -8.0165,-0.34572 -12.9259,-0.44714 -4.91,-0.10142 -10.4167,-0.15213 -16.5202,-0.15213 -48.0126,0 -87.27,2.41555 -117.7725,7.24669 -78.2478,169.38424 -173.0785,256.79614 -284.4922,262.23604 -38.2009,1.813 -73.2164,-6.9488 -105.0468,-26.2854 -32.097,-19.1341 -48.1457,-40.5853 -48.146,-64.3535 3e-4,-7.8554 1.9918,-15.4063 5.9742,-22.6528 20.4244,-36.0553 84.0847,-70.0944 190.981,-102.1175 36.8736,-10.8731 74.2104,-20.53997 112.0107,-29.00055 37.8004,-8.46063 76.5943,-15.61049 116.3821,-21.44963 l 0,0 z M -17.7635,1127.796 c -1.5944,3.2206 -2.8552,6.3922 -3.7824,9.5148 -0.9266,3.1222 -1.3901,6.3952 -1.3904,9.819 3e-4,21.1436 14.0576,39.9733 42.1718,56.4891 29.4504,17.1238 62.6081,25.0804 99.4733,23.8698 63.6685,-1.8134 124.6817,-38.1667 183.0396,-109.0599 17.7689,-21.9553 34.0138,-45.0676 48.7349,-69.3368 14.721,-24.2694 27.9181,-49.8986 39.5914,-76.88772 -95.4905,14.90517 -179.4453,34.94572 -251.8647,60.12172 -86.4722,30.2098 -138.4633,62.0331 -155.9735,95.47 l 0,0 z"
         style="font-size:144px;font-style:normal;font-variant:normal;font-weight:normal;font-stretch:normal;text-align:start;line-height:125%;writing-mode:lr-tb;text-anchor:start;fill:#000000;fill-opacity:1;stroke:#000000;stroke-width:10;stroke-linecap:butt;stroke-linejoin:miter;stroke-miterlimit:4;stroke-opacity:1;stroke-dasharray:none;font-family:Scriptina;-inkscape-font-specification:Scriptina"
         inkscape:connector-curvature="0" />
      <g
         transform="matrix(0.7894593,-0.08352739,0.2939612,0.9744795,-1830.0859,1317.0879)"
         id="g2669">
        <g
           id="g2671"
           transform="matrix(1.2986185,-0.05902482,0.3073842,1.1488066,2964.2951,624.79743)"
           style="fill:#000000;fill-opacity:1;stroke:#000000;stroke-width:0.91335028;stroke-opacity:1"
           inkscape:export-filename="D:\12321\Download\path2511.png"
           inkscape:export-xdpi="300"
           inkscape:export-ydpi="300">
          <path
             transform="matrix(2.1816481,0,0.7883891,2.5614035,2172.0084,1978.068)"
             d="m -1034.2857,-1057.3341 c 0,44.9718 -24.9441,81.42857 -55.7143,81.42857 -30.7702,0 -55.7143,-36.45677 -55.7143,-81.42857 0,-44.9718 24.9441,-81.4286 55.7143,-81.4286 30.7702,0 55.7143,36.4568 55.7143,81.4286 z"
             sodipodi:ry="81.428574"
             sodipodi:rx="55.714287"
             sodipodi:cy="-1057.3341"
             sodipodi:cx="-1090"
             id="path2673"
             style="fill:#000000;fill-opacity:1;fill-rule:nonzero;stroke:#000000;stroke-width:1.93186188;stroke-miterlimit:4;stroke-opacity:1;stroke-dasharray:none"
             sodipodi:type="arc" />
        </g>
        <g
           id="g2675"
           transform="matrix(0.9537193,0,0.3556699,0.9125009,2653.884,489.60213)"
           style="fill:#ffffff;fill-opacity:1;stroke:#000000;stroke-width:1.20309412;stroke-opacity:1"
           inkscape:export-filename="D:\12321\Download\path2511.png"
           inkscape:export-xdpi="300"
           inkscape:export-ydpi="300">
          <path
             transform="matrix(2.1816481,0,0.6534886,2.5614035,2025.6549,1989.22)"
             d="m -1034.2857,-1057.3341 c 0,44.9718 -24.9441,81.42857 -55.7143,81.42857 -30.7702,0 -55.7143,-36.45677 -55.7143,-81.42857 0,-44.9718 24.9441,-81.4286 55.7143,-81.4286 30.7702,0 55.7143,36.4568 55.7143,81.4286 z"
             sodipodi:ry="81.428574"
             sodipodi:rx="55.714287"
             sodipodi:cy="-1057.3341"
             sodipodi:cx="-1090"
             id="path2677"
             style="fill:#ffffff;fill-opacity:1;fill-rule:nonzero;stroke:#000000;stroke-width:2.54471016;stroke-miterlimit:4;stroke-opacity:1;stroke-dasharray:none"
             sodipodi:type="arc" />
        </g>
        <path
           sodipodi:type="arc"
           style="fill:#000000;fill-opacity:1;fill-rule:nonzero;stroke:none"
           id="path2679"
           sodipodi:cx="-1090"
           sodipodi:cy="-1057.3341"
           sodipodi:rx="55.714287"
           sodipodi:ry="81.428574"
           d="m -1034.2857,-1057.3341 c 0,44.9718 -24.9441,81.42857 -55.7143,81.42857 -30.7702,0 -55.7143,-36.45677 -55.7143,-81.42857 0,-44.9718 24.9441,-81.4286 55.7143,-81.4286 30.7702,0 55.7143,36.4568 55.7143,81.4286 z"
           transform="matrix(0.9514523,0,0.7769163,1.2589114,3277.8403,1157.2599)"
           inkscape:export-filename="D:\12321\Download\path2511.png"
           inkscape:export-xdpi="300"
           inkscape:export-ydpi="300" />
        <path
           sodipodi:type="arc"
           style="fill:#ffffff;fill-opacity:1;fill-rule:nonzero;stroke:#000000;stroke-width:8.41215706;stroke-miterlimit:4;stroke-opacity:1;stroke-dasharray:none"
           id="path2681"
           sodipodi:cx="-1090"
           sodipodi:cy="-1057.3341"
           sodipodi:rx="55.714287"
           sodipodi:ry="81.428574"
           d="m -1034.2857,-1057.3341 c 0,44.9718 -24.9441,81.42857 -55.7143,81.42857 -30.7702,0 -55.7143,-36.45677 -55.7143,-81.42857 0,-44.9718 24.9441,-81.4286 55.7143,-81.4286 30.7702,0 55.7143,36.4568 55.7143,81.4286 z"
           transform="matrix(0.6100004,0,0.4743203,0.7295383,2593.058,595.99009)"
           inkscape:export-filename="D:\12321\Download\path2511.png"
           inkscape:export-xdpi="300"
           inkscape:export-ydpi="300" />
      </g>
      <path
         sodipodi:nodetypes="ccccccccssccsssscccsc"
         id="path2683"
         d="M -657.85213,902.83158 C -439.66762,799.41199 -219.55535,747.48568 33.167186,719.45752 l 0.925517,13.47249 c -253.044883,30.36736 -499.226453,94.6013 -694.309073,254.02219 12.76498,9.79229 13.30508,9.69373 27.87871,15.4565 -20.41319,15.0002 -69.27924,28.3577 -121.75696,20.0322 -13.09345,-44.18251 7.99034,-104.01261 17.71214,-121.96802 6.66437,15.67631 8.66929,16.23794 17.11567,27.19086 62.38681,-130.40541 69.16487,-148.8501 142.48618,-256.80997 32.1379,-47.32053 97.48984,-113.96464 112.67461,-125.40713 23.51725,-17.72144 95.26328,-55.46255 74.50912,13.21433 -11.83223,40.37723 -23.58656,80.80229 -34.1955,121.52129 -12.64378,53.79233 -14.99295,60.89687 -33.78692,163.12897 -5.17417,28.14552 -12.40223,67.04957 -2.98548,113.09832 1.00272,4.90335 8.22022,1.26648 10.03277,5.76179 3.30198,8.18924 -9.19298,9.88863 -11.92509,8.12825 -7.29169,-4.69826 -19.24546,-37.87052 -12.23532,-114.76913 12.69078,-93.19247 33.71201,-185.22921 58.32451,-275.96662 7.03798,-24.57975 8.95466,-57.60555 -65.51806,26.76239 -75.07821,90.96884 -113.49447,176.07359 -159.04093,293.18234 -15.91811,40.92853 -12.13185,43.40466 -21.29543,73.59574"
         style="font-size:40px;font-style:normal;font-weight:normal;fill:#000000;fill-opacity:1;stroke:#000000;stroke-width:1px;stroke-linecap:butt;stroke-linejoin:miter;stroke-opacity:1;font-family:Bitstream Vera Sans"
         inkscape:connector-curvature="0" />
      <path
         sodipodi:nodetypes="ccccccccccccccccccccccccssssccccssssssccc"
         id="path2685"
         d="m 116.28426,712.99141 43.00429,-61.31105 12.3776,-2.41892 -0.64386,33.28583 26.43042,-38.32526 11.8189,-2.3097 -39.57818,57.38997 -12.76427,2.49454 0.61101,-28.12967 -29.23558,41.34591 -12.02033,-2.02165 z m 71.29402,-17.12518 32.88272,-47.68146 -18.69528,3.65358 6.69534,-9.70856 50.06893,-9.78486 -6.69533,9.70854 -18.65228,3.64518 -32.88272,47.68146 -12.72138,2.48612 z m 70.9362,-63.68711 12.72139,-2.48611 -21.43589,31.08299 c -3.40172,4.93259 -5.4489,8.09884 -6.14164,9.49871 -1.07549,2.24246 -1.07932,3.8747 -0.0116,4.89668 1.06771,1.02204 3.37788,1.18584 6.93076,0.49153 3.61014,-0.70551 6.79551,-1.90949 9.55608,-3.61193 2.7606,-1.70236 5.00212,-3.56866 6.72443,-5.59883 1.7223,-2.03016 4.14932,-5.31577 7.28113,-9.85691 l 21.89481,-31.74849 12.72139,-2.48608 -20.78795,30.14344 c -4.75161,6.88996 -8.45217,11.82445 -11.10142,14.80353 -2.6496,2.9791 -5.57327,5.62791 -8.77112,7.94643 -3.19796,2.31854 -6.74452,4.36085 -10.63978,6.12696 -3.89537,1.76608 -8.3357,3.13628 -13.32112,4.11057 -6.01691,1.17586 -10.14316,1.43466 -12.37898,0.77642 -2.23583,-0.65822 -3.5588,-1.82226 -3.969,-3.49213 -0.41021,-1.66983 -0.13692,-3.55795 0.81989,-5.66431 1.4369,-3.12597 4.36908,-7.89907 8.79667,-14.31925 l 21.11197,-30.61322 z"
         style="font-size:56px;font-style:normal;font-variant:normal;font-weight:bold;font-stretch:normal;text-align:start;line-height:125%;writing-mode:lr-tb;text-anchor:start;fill:#000000;fill-opacity:1;stroke:none;font-family:Arial;-inkscape-font-specification:Arial Bold"
         inkscape:connector-curvature="0" />
      <path
         sodipodi:nodetypes="ccccccccccccccccccccccccssssccccssssssccc"
         id="path3291"
         d="m 117.2919,723.016 91.92099,18.72811 19.0019,-1.30443 -27.4412,-13.04373 48.3793,11.3296 10.5422,-1.97648 -72.4455,-16.9655 -11.3853,2.13458 24.9168,13.14595 -72.94709,-14.02459 -10.5421,1.97649 z m 85.86649,-6.2514 60.19,14.0955 -16.6757,3.12642 12.2552,2.87003 44.6604,-8.37306 -12.2554,-2.87003 -16.6375,3.11925 -60.19,-14.09551 -11.347,2.1274 z m 100.5424,11.80167 11.3472,-2.12742 -39.2371,-9.18869 c -6.2268,-1.45813 -10.1218,-2.42961 -11.6855,-2.91434 -2.4797,-0.78541 -3.7034,-1.55965 -3.6718,-2.32268 0.0319,-0.76308 1.6324,-1.44165 4.8014,-2.03582 3.2204,-0.60372 6.4965,-0.86025 9.8287,-0.76957 3.3323,0.0906 6.8547,0.0615 9.6698,0.45124 6.5798,0.91105 9.0024,1.04224 14.904,2.02265 13.2423,2.77124 26.0179,6.00178 39.2602,8.77303 l 13.331,-3.19911 -40.2683,-6.92064 c -9.5143,-1.42441 -16.6656,-2.49954 -20.8698,-3.22553 -4.2043,-0.72591 -8.3662,-1.2237 -12.4855,-1.49328 -4.1191,-0.26957 -8.2919,-0.3173 -12.5181,-0.14318 -4.2262,0.17421 -8.5626,0.67811 -13.0095,1.51184 -5.3669,1.00621 -8.6379,1.95632 -9.8129,2.85039 -1.1751,0.89405 -1.2911,1.79097 -0.348,2.69076 0.9432,0.89978 2.5593,1.72547 4.8484,2.47709 3.4098,1.11104 9.1671,2.61555 17.2717,4.51345 l 38.6441,9.04981 z"
         style="font-size:56px;font-style:normal;font-variant:normal;font-weight:bold;font-stretch:normal;text-align:start;line-height:125%;writing-mode:lr-tb;text-anchor:start;fill:#000000;fill-opacity:1;stroke:none;font-family:Arial;-inkscape-font-specification:Arial Bold"
         inkscape:connector-curvature="0" />
    </g>
  </g>
</svg>
