<?xml version="1.0" encoding="UTF-8" standalone="no"?>
<svg
  xmlns:dc="http://purl.org/dc/elements/1.1/"
  xmlns:cc="http://creativecommons.org/ns#"
  xmlns:rdf="http://www.w3.org/1999/02/22-rdf-syntax-ns#"
  xmlns:svg="http://www.w3.org/2000/svg"
  xmlns:xlink="http://www.w3.org/1999/xlink"
  xmlns="http://www.w3.org/2000/svg"
  xmlns:sodipodi="http://sodipodi.sourceforge.net/DTD/sodipodi-0.dtd"
  width="100%"
  height="100%"
  viewBox="0 0 320 320"
  version="1.1"
  sodipodi:docname="R+.2.svg">

  <defs id="defs3">
    <filter id="drop-shadow" width="120%" height="120%">
      <feGaussianBlur in="SourceAlpha" stdDeviation="5" />
      <feOffset dx="10" dy="8" result="offsetblur" />
      <feFlood flood-color="rgb(128,128,128)" flood-opacity=".9" />
      <feComposite in2="offsetblur" operator="in" />
      <feMerge>
        <feMergeNode />
        <feMergeNode in="SourceGraphic" />
      </feMerge>
    </filter>
    <filter id="drop-shadow2" width="120%" height="120%">
      <feGaussianBlur in="SourceAlpha" stdDeviation="2" />
      <feOffset dx="4" dy="5" result="offsetblur" />
      <feFlood flood-color="rgb(60,60,60)" flood-opacity=".9" />
      <feComposite in2="offsetblur" operator="in" />
      <feMerge>
        <feMergeNode />
        <feMergeNode in="SourceGraphic" />
      </feMerge>
    </filter>

    <!-- font-family:Pristina -->
    <path
      id="icon-R"
      d="m 94.32,69.62 c -5.98,2.43 -4.24,10.65 -6.16,15.59 -4.9,3.11 -12.35,3.95 -18.03,6.64 C 45.87,101 21.61,113.2 4.162,132.5 c -4.9564,5.4 -5.369,13.2 -1.859,19.4 4.233,10.6 8.877,21.4 16.617,30 3.82,3.2 11.15,-0.1 8.78,-5.3 -2.89,-10 -9.5,-22.4 -1.65,-31.8 14.04,-17.7 36.23,-26.3 57.17,-34.2 -3.73,12.5 -6.79,25.8 -11.85,37.6 -4.54,0.8 -13.53,0.5 -13.53,6.8 1.04,5.3 6.1,9.6 7.02,14.4 -6.71,17.6 -13.62,36.2 -21.88,52.6 -2.07,-3 -6.3,-9.2 -10.53,-5.1 -3.41,4.5 -0.52,11 -3.72,15.9 -1.65,8.2 -7.95,15.3 -7.33,23.8 2.48,6 8.26,11.2 14.66,13.2 7.54,-0.2 9.29,-9.5 12.29,-14.5 10.53,-23.4 20.23,-47.1 28.28,-71.4 30.57,40.6 64.07,79.6 103.87,111.9 6.2,5.1 15.9,6.6 22.2,0.8 7.1,-6.3 13.3,-14.2 16.6,-23 1.5,-5.2 -5.7,-7.5 -9.2,-4.3 -5.3,4.9 -13.5,6.5 -19.5,2.1 -23.3,-14.7 -41.1,-36.1 -59.3,-55.9 -16.4,-18.8 -31.94,-38.5 -46.11,-59.1 5.94,-17.1 11.1,-34.4 15.31,-51.9 16.1,-5.73 33.9,-10.74 51.2,-6.76 9.5,2.04 10.9,12.96 7.7,20.36 -5.9,15 -16.8,28.4 -29.4,38.7 -6.5,5.6 -15.8,7.5 -23.7,3.9 -5,-2.2 -11.55,3.1 -8.02,8 9.42,8.1 23.02,15.7 35.82,10.5 16.1,-7.1 26.8,-21.7 36.7,-35.3 8.1,-11.7 14.5,-28 6.6,-41.3 -3.9,-6.46 -12.4,-8.76 -14.6,-16.14 -4.6,-9.01 -15.2,-14.65 -25.5,-12.29 -10.9,1.39 -21.9,3.82 -32.6,6.35 -2.6,-3.64 -4.87,-10.75 -10.38,-10.9 z" />

    <path
      id="icon-plus"
      d="m 226.4,0 c -5.5,0.42 -6.8,7.946 -3.4,11.5 -0.2,8.47 -2.5,17.49 -5,25.08 -10.5,0.16 -21.6,-3.81 -31.9,-0.3 -6.3,3.67 -6,12.24 -6.7,18.44 1.5,5.13 8.9,5.35 11.9,1.61 7.1,-1.15 15.9,-1.65 22.3,-0.21 -1.8,8.96 -8,17.93 -5.9,27.27 2.9,6.14 10.6,7.24 16.2,9.44 5.7,0 7.7,-7.84 4.2,-11.64 1.1,-8.42 3,-17.33 5.1,-25.24 9.9,-0.4 20.5,3.26 30,-0.13 5.6,-3.76 6.5,-11.15 7.7,-17.19 -0.6,-5.68 -9.3,-7.09 -11.9,-2.23 -7,2.11 -14.3,0.64 -21.4,0.72 1.6,-8.47 6,-16.81 5.1,-25.5 C 240.2,5.166 232.6,1.55 226.4,0 z" />

  </defs>

    <g
      transform="translate(20,5)"
      id="icon">
      <use xlink:href="#icon-R"    style="fill:#ff0000;filter:url(#drop-shadow)" />
      <use xlink:href="#icon-plus" style="fill:#d50000;filter:url(#drop-shadow2)" />
    </g>

</svg>
