<?xml version="1.0" encoding="UTF-8" standalone="no"?>
<!-- Created with Inkscape (http://www.inkscape.org/) -->

<svg
   xmlns:dc="http://purl.org/dc/elements/1.1/"
   xmlns:cc="http://creativecommons.org/ns#"
   xmlns:rdf="http://www.w3.org/1999/02/22-rdf-syntax-ns#"
   xmlns:svg="http://www.w3.org/2000/svg"
   xmlns="http://www.w3.org/2000/svg"
   xmlns:sodipodi="http://sodipodi.sourceforge.net/DTD/sodipodi-0.dtd"
   xmlns:inkscape="http://www.inkscape.org/namespaces/inkscape"
   width="398.30508"
   height="386.77084"
   id="svg2"
   version="1.1"
   inkscape:version="0.48.4 r9939"
   sodipodi:docname="R+2.svg">
  <defs
     id="defs4">
    <filter
       color-interpolation-filters="sRGB"
       inkscape:collect="always"
       id="filter6215-5">
      <feGaussianBlur
         inkscape:collect="always"
         stdDeviation="5.5429314"
         id="feGaussianBlur6217-8" />
    </filter>
    <filter
       color-interpolation-filters="sRGB"
       inkscape:collect="always"
       id="filter6243-1">
      <feGaussianBlur
         inkscape:collect="always"
         stdDeviation="2.3039501"
         id="feGaussianBlur6245-8" />
    </filter>
  </defs>
  <sodipodi:namedview
     id="base"
     pagecolor="#ffffff"
     bordercolor="#666666"
     borderopacity="1.0"
     inkscape:pageopacity="0.0"
     inkscape:pageshadow="2"
     inkscape:zoom="1.4"
     inkscape:cx="286.73223"
     inkscape:cy="195.65285"
     inkscape:document-units="px"
     inkscape:current-layer="layer1"
     showgrid="false"
     inkscape:window-width="1400"
     inkscape:window-height="989"
     inkscape:window-x="0"
     inkscape:window-y="0"
     inkscape:window-maximized="1"
     fit-margin-top="0"
     fit-margin-left="0"
     fit-margin-right="0"
     fit-margin-bottom="0" />
  <metadata
     id="metadata7">
    <rdf:RDF>
      <cc:Work
         rdf:about="">
        <dc:format>image/svg+xml</dc:format>
        <dc:type
           rdf:resource="http://purl.org/dc/dcmitype/StillImage" />
        <dc:title />
      </cc:Work>
    </rdf:RDF>
  </metadata>
  <g
     inkscape:groupmode="layer"
     id="layer4"
     inkscape:label="B2" />
  <g
     inkscape:groupmode="layer"
     id="layer3"
     inkscape:label="B1" />
  <g
     inkscape:label="1F"
     inkscape:groupmode="layer"
     id="layer1"
     transform="translate(-4.6957284e-6,0)">
    <g
       id="g6332">
      <g
         id="g6324">
        <g
           transform="translate(-0.663999,0.25748287)"
           id="g6247">
          <path
             inkscape:connector-curvature="0"
             id="text4151-4"
             d="m 189.24859,79.04096 c -5.78921,2.4353 -4.11251,10.651614 -5.96861,15.593754 -4.7362,3.10911 -11.9506,3.94929 -17.435,6.635906 -23.5401,9.23935 -47.0525,21.45244 -63.90881,40.80159 -4.795605,5.39812 -5.171405,13.10631 -1.847,19.34652 4.15401,10.59363 8.59361,21.40402 16.12831,29.96599 3.6943,3.20019 10.7655,-0.0415 8.5,-5.28125 -2.7536,-9.96332 -9.2299,-22.37766 -1.5938,-31.78125 13.6175,-17.74654 35.0814,-26.3196 55.375,-34.18751 -3.6093,12.52507 -6.6093,25.74607 -11.4687,37.5625 -4.4377,0.80262 -13.1042,0.53465 -13.0938,6.84375 1.0124,5.282 5.8578,9.55048 6.7574,14.37924 -6.452,17.63029 -13.1594,36.2077 -21.1324,52.58952 -2.0886,-2.9843 -6.1777,-9.18795 -10.2187,-5.09375 -3.3539,4.49921 -0.5346,11.05614 -3.5938,15.9375 -1.6295,8.13631 -7.7636,15.26111 -7.125,23.75 2.4116,6.04502 8.0333,11.24084 14.2188,13.21875 7.3114,-0.22704 8.9428,-9.45934 11.8749,-14.53881 10.1747,-23.31657 19.6431,-47.09304 27.3751,-71.36744 29.5798,40.57925 62.1233,79.6165 100.6249,111.9375 6.0004,5.06178 15.3836,6.61861 21.4687,0.78125 6.9191,-6.30885 12.892,-14.20493 16.125,-22.96875 1.4555,-5.22568 -5.516,-7.5349 -8.9374,-4.34375 -5.0172,4.8781 -13.0158,6.46272 -18.9063,2.0625 -22.4544,-14.64497 -39.7106,-36.01964 -57.358,-55.88122 -15.924,-18.82746 -30.97649,-38.48699 -44.7044,-59.05629 5.7575,-17.07908 10.75371,-34.39792 14.78111,-51.96875 15.60359,-5.78432 32.96339,-10.79428 49.59379,-6.8125 9.234,2.03871 10.5897,13.08197 7.5625,20.5 -5.7057,14.97279 -16.3212,28.38038 -28.5313,38.6875 -6.2792,5.52336 -15.2933,7.48202 -22.9375,3.84375 -4.82809,-2.20288 -11.20729,3.16615 -7.78119,8.03125 9.12149,8.13362 22.34029,15.65143 34.74999,10.53126 15.5647,-7.11259 25.9204,-21.72725 35.4375,-35.34375 7.9122,-11.7341 14.1435,-27.96566 6.4062,-41.31251 -3.6773,-6.53482 -11.9684,-8.83976 -14.0937,-16.218746 -4.4846,-9.01127 -14.6442,-14.651474 -24.7115,-12.286434 -10.6048,1.390364 -21.1326,3.818424 -31.5385,6.348934 -2.57829,-3.645 -4.75269,-10.756614 -10.09379,-10.906254 z"
             style="fill:#808080;stroke:none;filter:url(#filter6215-5);" />
          <path
             style="opacity:0.8;fill:#646464;filter:url(#filter6243-1);"
             d="m 318.6653,6.8040218 c -7.0098,0.75787 -5.2841,8.6789302 -3.2242,12.7815802 -0.5812,8.14184 -2.9331,16.02523 -4.7212,23.951051 -11.513,1.472 -26.3754,-6.590611 -35.9265,2.53329 -1.7823,5.87523 -7.2574,16.58333 1.094,19.57539 5.6622,0.74309 8.6253,-5.34288 14.8522,-3.36542 4.4632,1.35572 18.4808,-3.93886 14.0278,4.37827 -1.2903,8.43052 -11.2885,22.47085 -0.3807,28.58053 4.9575,2.81388 15.8816,8.660127 17.3876,-0.9212 -0.022,-4.60973 -3.519,-7.80657 -0.6333,-12.78157 2.7941,-7.88001 -0.034,-22.89794 12.4362,-18.36632 8.4188,-0.22616 23.3125,5.07783 26.5995,-6.56352 3.798,-5.43661 4.8817,-18.25063 -5.1242,-15.94818 -6.3491,6.76316 -16.9062,2.66677 -25.3904,3.62721 0.2216,-9.623821 10.4151,-21.417411 2.8211,-29.996401 -3.961,-3.19235 -8.732,-7.0972202 -13.8179,-7.4847102 z"
             id="path6183"
             inkscape:connector-curvature="0" />
        </g>
        <g
           id="g4950"
           transform="translate(-1516.8592,47.796847)">
          <path
             inkscape:connector-curvature="0"
             id="text4151"
             d="m 1695.3522,23.438291 c -5.7892,2.4353 -4.1125,10.651614 -5.9686,15.593754 -4.7362,3.10911 -11.9506,3.94929 -17.435,6.63591 -23.5401,9.23935 -47.0525,21.45244 -63.9088,40.80159 -4.7956,5.39812 -5.1714,13.106307 -1.847,19.346525 4.154,10.59363 8.5936,21.40401 16.1283,29.96598 3.6943,3.20019 10.7655,-0.0415 8.5,-5.28125 -2.7536,-9.96331 -9.2299,-22.37765 -1.5938,-31.781248 13.6175,-17.746537 35.0814,-26.319597 55.375,-34.187507 -3.6093,12.52507 -6.6093,25.74607 -11.4687,37.562505 -4.4377,0.80262 -13.1042,0.53465 -13.0938,6.84375 1.0124,5.282 5.8578,9.55048 6.7574,14.37924 -6.452,17.63028 -13.1594,36.20769 -21.1324,52.58951 -2.0886,-2.9843 -6.1777,-9.18795 -10.2187,-5.09375 -3.3539,4.49921 -0.5346,11.05614 -3.5938,15.9375 -1.6295,8.13631 -7.7636,15.26111 -7.125,23.75 2.4116,6.04502 8.0333,11.24084 14.2188,13.21875 7.3114,-0.22704 8.9428,-9.45934 11.8749,-14.53881 10.1747,-23.31657 19.6431,-47.09304 27.3751,-71.36744 29.5798,40.57925 62.1233,79.6165 100.6249,111.9375 6.0004,5.06178 15.3836,6.61861 21.4687,0.78125 6.9191,-6.30885 12.892,-14.20493 16.125,-22.96875 1.4555,-5.22568 -5.516,-7.5349 -8.9374,-4.34375 -5.0172,4.8781 -13.0158,6.46272 -18.9063,2.0625 -22.4544,-14.64497 -39.7106,-36.01964 -57.358,-55.88122 -15.924,-18.82746 -30.9765,-38.48699 -44.7044,-59.05628 5.7575,-17.079088 10.7537,-34.397925 14.7811,-51.968755 15.6036,-5.78432 32.9634,-10.79428 49.5938,-6.8125 9.234,2.03871 10.5897,13.08197 7.5625,20.5 -5.7057,14.97279 -16.3212,28.380385 -28.5313,38.687505 -6.2792,5.52336 -15.2933,7.48202 -22.9375,3.84375 -4.8281,-2.20288 -11.2073,3.16615 -7.7812,8.03125 9.1215,8.13361 22.3403,15.65142 34.75,10.53125 15.5647,-7.11259 25.9204,-21.72724 35.4375,-35.343748 7.9122,-11.734097 14.1435,-27.965657 6.4062,-41.312507 -3.6773,-6.53482 -11.9684,-8.83976 -14.0937,-16.21875 -4.4846,-9.01127 -14.6442,-14.651474 -24.7115,-12.286434 -10.6048,1.390364 -21.1326,3.818424 -31.5385,6.348934 -2.5783,-3.645 -4.7527,-10.756614 -10.0938,-10.906254 z"
             style="fill:#ff0000;" />
          <path
             inkscape:connector-curvature="0"
             id="text4925"
             d="m 1830.7017,-47.796847 c -7.0098,0.75787 -5.2841,8.67893 -3.2242,12.78158 -0.5812,8.14184 -2.9331,16.02523 -4.7212,23.951051 -11.513,1.4719996 -26.3754,-6.590611 -35.9265,2.5332896 -1.7823,5.87523 -7.2574,16.5833297 1.094,19.5753894 5.6622,0.74309 8.6253,-5.3428797 14.8522,-3.3654197 4.4632,1.35572 18.4808,-3.9388597 14.0278,4.3782697 -1.2903,8.43052 -11.2885,22.47085 -0.3807,28.58053 4.9575,2.81388 15.8816,8.66013 17.3876,-0.9212 -0.022,-4.60973 -3.519,-7.80657 -0.6333,-12.78157 2.7941,-7.88001 -0.034,-22.8979394 12.4362,-18.3663197 8.4188,-0.22616 23.3125,5.0778337 26.5995,-6.5635197 3.798,-5.43661 4.8817,-18.2506306 -5.1242,-15.9481796 -6.3491,6.7631596 -16.9062,2.66677 -25.3904,3.62721 0.2216,-9.623821 10.4151,-21.417411 2.8211,-29.996401 -3.961,-3.19235 -8.732,-7.09722 -13.8179,-7.48471 z"
             style="fill:#c80000;" />
        </g>
      </g>
      <g
         id="text4973">
        <path
           d="m 4.6957284e-6,386.77085 0,-39.87135 11.3058373042716,0 0,4.08386 -6.46969,0 0,31.70363 6.46969,0 0,4.08386 -11.3058373042716,0"
           style=""
           id="path3037" />
        <path
           d="m 34.368891,378.73209 -14.486948,-12.20858 14.486948,-12.18709 3.353063,3.39605 -10.661019,8.74805 10.661019,8.85552 -3.353063,3.39605"
           style=""
           id="path3039" />
        <path
           d="m 58.807556,378.23773 0,-12.23008 -9.543331,0 0,12.23008 -5.287521,0 0,-28.09264 5.287521,0 0,11.28434 9.543331,0 0,-11.28434 5.287521,0 0,28.09264 -5.287521,0"
           style=""
           id="path3041" />
        <path
           d="m 80.989353,354.55136 0,23.68637 -5.416485,0 0,-23.68637 -7.694848,0 0,-4.40627 20.806181,0 0,4.40627 -7.694848,0"
           style=""
           id="path3043" />
        <path
           d="m 108.99602,378.23773 -0.51586,-15.88406 -0.19344,-6.34072 -1.35413,4.2988 -3.11662,9.56482 -3.31008,0 -2.815711,-9.56482 -1.182169,-4.2988 -0.150458,6.21176 -0.472868,16.01302 -4.492243,0 1.375615,-28.09264 5.975329,0 2.471805,7.97427 1.18217,4.49224 1.18217,-4.23431 2.60077,-8.2322 6.0828,0 1.39711,28.09264 -4.66419,0"
           style=""
           id="path3045" />
        <path
           d="m 118.90474,378.23773 0,-28.09264 5.3735,0 0,23.55741 11.86468,0 0,4.53523 -17.23818,0"
           style=""
           id="path3047" />
        <path
           d="m 146.43855,354.33642 14.48695,12.18709 -14.48695,12.20858 -3.33157,-3.39605 10.63952,-8.76954 -10.63952,-8.83403 3.33157,-3.39605"
           style=""
           id="path3049" />
        <path
           d="m 167.69609,382.38607 c 0.85976,0.0287 1.6622,-0.0215 2.40733,-0.15046 0.74512,-0.12896 1.38993,-0.33674 1.93446,-0.62332 0.55883,-0.27226 0.99588,-0.62333 1.31113,-1.05321 0.31524,-0.42988 0.47286,-0.93857 0.47287,-1.52607 -1e-5,-0.41555 -0.0645,-0.76662 -0.19345,-1.05321 -0.11464,-0.30091 -0.2651,-0.566 -0.45137,-0.79527 -0.18629,-0.2436 -0.3869,-0.47287 -0.60183,-0.68781 -0.20062,-0.22927 -0.39407,-0.4657 -0.58034,-0.7093 -0.18629,-0.25793 -0.34391,-0.54451 -0.47287,-0.85976 -0.11464,-0.32957 -0.17196,-0.72363 -0.17195,-1.18217 -10e-6,-0.44421 0.0788,-0.87409 0.23643,-1.28964 0.15762,-0.42987 0.38689,-0.8096 0.68781,-1.13918 0.30091,-0.32957 0.66631,-0.59466 1.09619,-0.79528 0.4442,-0.2006 0.94573,-0.30091 1.50458,-0.30092 0.70213,1e-5 1.33262,0.1648 1.89148,0.49437 0.55882,0.31525 1.03169,0.75229 1.4186,1.31113 0.38687,0.54452 0.68063,1.17501 0.88125,1.89147 0.2006,0.70214 0.3009,1.4401 0.30092,2.21388 -2e-5,1.33263 -0.24362,2.58644 -0.7308,3.76145 -0.48721,1.175 -1.218,2.19955 -2.19238,3.07364 -0.97441,0.87408 -2.1924,1.56189 -3.65398,2.06342 -1.44727,0.51585 -3.1453,0.77378 -5.09408,0.77379 l 0,-3.41755"
           style=""
           id="path3051" />
        <path
           d="m 233.23127,377.14154 c -1.24667,0.50153 -2.4575,0.87409 -3.63248,1.11769 -1.16069,0.24359 -2.37152,0.36539 -3.63249,0.36539 -2.02044,0 -3.81161,-0.29375 -5.37349,-0.88125 -1.54758,-0.60183 -2.85871,-1.49025 -3.9334,-2.66525 -1.06038,-1.175 -1.86998,-2.62943 -2.42882,-4.36328 -0.54452,-1.74817 -0.81678,-3.77577 -0.81677,-6.0828 -10e-6,-2.36433 0.30091,-4.46357 0.90274,-6.29774 0.60183,-1.84846 1.46159,-3.40319 2.57928,-4.6642 1.11768,-1.27528 2.4718,-2.24251 4.06237,-2.90168 1.60487,-0.67346 3.4032,-1.01019 5.39499,-1.01022 0.6448,3e-5 1.24663,0.0144 1.80549,0.043 0.57316,0.0287 1.132,0.086 1.67653,0.17195 0.5445,0.0717 1.09618,0.17198 1.65504,0.30091 0.55882,0.129 1.13916,0.29378 1.74101,0.49437 l 0,5.24453 c -1.21801,-0.57315 -2.37868,-0.98154 -3.48202,-1.22516 -1.10338,-0.24357 -2.10643,-0.36537 -3.00916,-0.3654 -1.33264,3e-5 -2.47182,0.24363 -3.41755,0.7308 -0.94574,0.47289 -1.72669,1.14637 -2.34284,2.02043 -0.60184,0.85978 -1.04605,1.89149 -1.33263,3.09514 -0.28659,1.18935 -0.42989,2.50048 -0.42988,3.9334 -10e-6,1.51892 0.14329,2.8802 0.42988,4.08386 0.30091,1.18934 0.75945,2.19955 1.37562,3.03065 0.61615,0.8311 1.40426,1.46876 2.36434,1.91296 0.96005,0.42989 2.09923,0.64483 3.41754,0.64482 0.47285,10e-6 0.98154,-0.043 1.52607,-0.12896 0.55883,-0.1003 1.11767,-0.2221 1.67653,-0.3654 0.57316,-0.15762 1.132,-0.33673 1.67654,-0.53735 0.55882,-0.21493 1.07467,-0.42987 1.54756,-0.64482 l 0,4.94362"
           style=""
           id="path3053" />
        <path
           d="m 257.82039,369.74761 c -3e-5,1.53324 -0.28661,2.86587 -0.85976,3.99788 -0.55887,1.13202 -1.34698,2.07059 -2.36434,2.81571 -1.0174,0.7308 -2.22823,1.27531 -3.63249,1.63354 -1.40428,0.35824 -2.93752,0.53735 -4.59971,0.53735 -1.47593,0 -2.9017,-0.086 -4.2773,-0.25792 -1.37562,-0.17196 -2.73691,-0.45854 -4.08386,-0.85976 l 0,-5.22304 c 0.65914,0.22927 1.34695,0.44421 2.06342,0.64482 0.71646,0.20061 1.43293,0.37973 2.1494,0.53735 0.73079,0.14329 1.45442,0.25793 2.17089,0.3439 0.71646,0.086 1.41143,0.12897 2.08492,0.12896 1.00304,10e-6 1.85563,-0.086 2.55778,-0.25792 0.70213,-0.17195 1.2753,-0.40838 1.71952,-0.70931 0.4442,-0.30091 0.76661,-0.65914 0.96723,-1.07469 0.2006,-0.41555 0.3009,-0.87409 0.30092,-1.37562 -2e-5,-0.6878 -0.20063,-1.26097 -0.60183,-1.71952 -0.38691,-0.47286 -0.90277,-0.88841 -1.54757,-1.24665 -0.64483,-0.35822 -1.38279,-0.68063 -2.21388,-0.96723 -0.81678,-0.28657 -1.65505,-0.59465 -2.5148,-0.92424 -0.84544,-0.32956 -1.6837,-0.70212 -2.51479,-1.11769 -0.81678,-0.41553 -1.54758,-0.93139 -2.19239,-1.54757 -0.64482,-0.61614 -1.16784,-1.34694 -1.56906,-2.19238 -0.3869,-0.85974 -0.58034,-1.89145 -0.58034,-3.09514 0,-1.10333 0.20061,-2.14937 0.60183,-3.13812 0.40122,-0.9887 1.03171,-1.84846 1.89147,-2.57928 0.85976,-0.7451 1.96311,-1.3326 3.31008,-1.7625 1.34694,-0.44419 2.97332,-0.66629 4.87913,-0.66632 0.55883,3e-5 1.13917,0.0287 1.74102,0.086 0.61614,0.043 1.21797,0.1075 1.80549,0.19344 0.60181,0.0717 1.17499,0.16482 1.71952,0.27943 0.55882,0.10033 1.06751,0.2078 1.52607,0.32241 l 0,4.83614 c -0.45856,-0.17193 -0.96008,-0.32955 -1.50458,-0.47287 -0.54453,-0.14326 -1.11054,-0.26506 -1.69802,-0.36539 -0.57319,-0.11461 -1.15353,-0.20059 -1.74101,-0.25793 -0.58752,-0.0573 -1.14636,-0.086 -1.67654,-0.086 -0.93141,3e-5 -1.71953,0.0788 -2.36433,0.23644 -0.64483,0.14331 -1.17502,0.35109 -1.59056,0.62332 -0.41556,0.25795 -0.71647,0.58036 -0.90275,0.96723 -0.18629,0.38692 -0.27943,0.8168 -0.27942,1.28964 -1e-5,0.58752 0.19344,1.09621 0.58034,1.52607 0.40121,0.41557 0.92423,0.7953 1.56906,1.13919 0.65914,0.32959 1.3971,0.64483 2.21388,0.94573 0.83109,0.28661 1.67652,0.60185 2.53629,0.94574 0.87407,0.32959 1.7195,0.70931 2.53629,1.13918 0.83108,0.42989 1.56904,0.95291 2.21388,1.56906 0.65913,0.61617 1.18215,1.34697 1.56906,2.19239 0.4012,0.83111 0.60181,1.81983 0.60184,2.96617"
           style=""
           id="path3055" />
        <path
           d="m 282.06559,369.74761 c -2e-5,1.53324 -0.2866,2.86587 -0.85976,3.99788 -0.55886,1.13202 -1.34697,2.07059 -2.36433,2.81571 -1.0174,0.7308 -2.22823,1.27531 -3.63249,1.63354 -1.40429,0.35824 -2.93752,0.53735 -4.59971,0.53735 -1.47593,0 -2.9017,-0.086 -4.27731,-0.25792 -1.37562,-0.17196 -2.7369,-0.45854 -4.08385,-0.85976 l 0,-5.22304 c 0.65914,0.22927 1.34695,0.44421 2.06342,0.64482 0.71646,0.20061 1.43293,0.37973 2.1494,0.53735 0.73079,0.14329 1.45442,0.25793 2.17089,0.3439 0.71646,0.086 1.41143,0.12897 2.08492,0.12896 1.00304,10e-6 1.85563,-0.086 2.55778,-0.25792 0.70213,-0.17195 1.2753,-0.40838 1.71952,-0.70931 0.4442,-0.30091 0.76661,-0.65914 0.96723,-1.07469 0.2006,-0.41555 0.3009,-0.87409 0.30092,-1.37562 -2e-5,-0.6878 -0.20063,-1.26097 -0.60183,-1.71952 -0.38691,-0.47286 -0.90277,-0.88841 -1.54757,-1.24665 -0.64483,-0.35822 -1.38279,-0.68063 -2.21388,-0.96723 -0.81678,-0.28657 -1.65505,-0.59465 -2.5148,-0.92424 -0.84544,-0.32956 -1.6837,-0.70212 -2.5148,-1.11769 -0.81677,-0.41553 -1.54757,-0.93139 -2.19238,-1.54757 -0.64483,-0.61614 -1.16785,-1.34694 -1.56906,-2.19238 -0.3869,-0.85974 -0.58034,-1.89145 -0.58034,-3.09514 0,-1.10333 0.20061,-2.14937 0.60183,-3.13812 0.40122,-0.9887 1.03171,-1.84846 1.89147,-2.57928 0.85976,-0.7451 1.96311,-1.3326 3.31008,-1.7625 1.34694,-0.44419 2.97332,-0.66629 4.87913,-0.66632 0.55883,3e-5 1.13917,0.0287 1.74101,0.086 0.61615,0.043 1.21798,0.1075 1.8055,0.19344 0.60181,0.0717 1.17499,0.16482 1.71952,0.27943 0.55882,0.10033 1.06751,0.2078 1.52607,0.32241 l 0,4.83614 c -0.45856,-0.17193 -0.96008,-0.32955 -1.50458,-0.47287 -0.54453,-0.14326 -1.11054,-0.26506 -1.69802,-0.36539 -0.57319,-0.11461 -1.15353,-0.20059 -1.74102,-0.25793 -0.58751,-0.0573 -1.14636,-0.086 -1.67653,-0.086 -0.93142,3e-5 -1.71953,0.0788 -2.36434,0.23644 -0.64483,0.14331 -1.17501,0.35109 -1.59055,0.62332 -0.41556,0.25795 -0.71648,0.58036 -0.90275,0.96723 -0.18629,0.38692 -0.27943,0.8168 -0.27942,1.28964 -10e-6,0.58752 0.19344,1.09621 0.58034,1.52607 0.40121,0.41557 0.92423,0.7953 1.56906,1.13919 0.65914,0.32959 1.3971,0.64483 2.21388,0.94573 0.83109,0.28661 1.67652,0.60185 2.53629,0.94574 0.87407,0.32959 1.7195,0.70931 2.53629,1.13918 0.83108,0.42989 1.56904,0.95291 2.21388,1.56906 0.65913,0.61617 1.18215,1.34697 1.56906,2.19239 0.4012,0.83111 0.60181,1.81983 0.60183,2.96617"
           style=""
           id="path3057" />
        <path
           d="m 288.9222,382.38607 c 0.85975,0.0287 1.66219,-0.0215 2.40732,-0.15046 0.74512,-0.12896 1.38994,-0.33674 1.93446,-0.62332 0.55884,-0.27226 0.99588,-0.62333 1.31114,-1.05321 0.31523,-0.42988 0.47285,-0.93857 0.47286,-1.52607 -10e-6,-0.41555 -0.0645,-0.76662 -0.19344,-1.05321 -0.11465,-0.30091 -0.26511,-0.566 -0.45138,-0.79527 -0.18629,-0.2436 -0.3869,-0.47287 -0.60183,-0.68781 -0.20062,-0.22927 -0.39406,-0.4657 -0.58034,-0.7093 -0.18629,-0.25793 -0.34391,-0.54451 -0.47286,-0.85976 -0.11465,-0.32957 -0.17196,-0.72363 -0.17196,-1.18217 0,-0.44421 0.0788,-0.87409 0.23644,-1.28964 0.15761,-0.42987 0.38688,-0.8096 0.68781,-1.13918 0.3009,-0.32957 0.6663,-0.59466 1.09619,-0.79528 0.4442,-0.2006 0.94572,-0.30091 1.50458,-0.30092 0.70212,1e-5 1.33261,0.1648 1.89147,0.49437 0.55883,0.31525 1.0317,0.75229 1.4186,1.31113 0.38688,0.54452 0.68063,1.17501 0.88126,1.89147 0.20059,0.70214 0.3009,1.4401 0.30091,2.21388 -1e-5,1.33263 -0.24361,2.58644 -0.73079,3.76145 -0.48722,1.175 -1.21801,2.19955 -2.19239,3.07364 -0.97441,0.87408 -2.1924,1.56189 -3.65398,2.06342 -1.44727,0.51585 -3.14529,0.77378 -5.09407,0.77379 l 0,-3.41755"
           style=""
           id="path3059" />
        <path
           d="m 352.32944,369.83358 c -2e-5,1.31831 -0.20779,2.52197 -0.62332,3.61099 -0.41557,1.08904 -1.02457,2.02044 -1.82699,2.79422 -0.80246,0.77379 -1.79835,1.37562 -2.98767,1.8055 -1.18934,0.41555 -2.57212,0.62332 -4.14834,0.62332 -1.16068,0 -2.27837,-0.13613 -3.35306,-0.40838 -1.0747,-0.27226 -2.01327,-0.61616 -2.81571,-1.03172 l 0,-5.11556 c 0.35823,0.30092 0.77378,0.58034 1.24665,0.83826 0.48719,0.25793 1.00305,0.4872 1.54757,0.68781 0.5445,0.18628 1.10335,0.33674 1.67653,0.45137 0.57316,0.10031 1.13917,0.15046 1.69802,0.15046 0.47286,0 0.96006,-0.086 1.46159,-0.25793 0.51585,-0.17195 0.97439,-0.45853 1.37562,-0.85976 0.40121,-0.40121 0.73078,-0.92423 0.98872,-1.56906 0.25792,-0.65914 0.38688,-1.46875 0.38689,-2.42882 l 0,-14.61591 -10.16665,0 0,-4.36328 15.54015,0 0,19.68849"
           style=""
           id="path3061" />
        <path
           d="m 379.04649,369.74761 c -2e-5,1.53324 -0.28661,2.86587 -0.85976,3.99788 -0.55886,1.13202 -1.34698,2.07059 -2.36434,2.81571 -1.0174,0.7308 -2.22822,1.27531 -3.63248,1.63354 -1.40429,0.35824 -2.93753,0.53735 -4.59972,0.53735 -1.47593,0 -2.90169,-0.086 -4.2773,-0.25792 -1.37562,-0.17196 -2.7369,-0.45854 -4.08386,-0.85976 l 0,-5.22304 c 0.65915,0.22927 1.34696,0.44421 2.06343,0.64482 0.71646,0.20061 1.43292,0.37973 2.14939,0.53735 0.73079,0.14329 1.45442,0.25793 2.1709,0.3439 0.71645,0.086 1.41143,0.12897 2.08491,0.12896 1.00305,10e-6 1.85564,-0.086 2.55779,-0.25792 0.70212,-0.17195 1.27529,-0.40838 1.71952,-0.70931 0.44419,-0.30091 0.7666,-0.65914 0.96723,-1.07469 0.20059,-0.41555 0.3009,-0.87409 0.30091,-1.37562 -10e-6,-0.6878 -0.20062,-1.26097 -0.60183,-1.71952 -0.38691,-0.47286 -0.90276,-0.88841 -1.54757,-1.24665 -0.64483,-0.35822 -1.38279,-0.68063 -2.21388,-0.96723 -0.81678,-0.28657 -1.65504,-0.59465 -2.51479,-0.92424 -0.84544,-0.32956 -1.68371,-0.70212 -2.5148,-1.11769 -0.81678,-0.41553 -1.54757,-0.93139 -2.19239,-1.54757 -0.64482,-0.61614 -1.16784,-1.34694 -1.56906,-2.19238 -0.38689,-0.85974 -0.58034,-1.89145 -0.58034,-3.09514 0,-1.10333 0.20061,-2.14937 0.60184,-3.13812 0.40121,-0.9887 1.0317,-1.84846 1.89147,-2.57928 0.85975,-0.7451 1.96311,-1.3326 3.31007,-1.7625 1.34695,-0.44419 2.97333,-0.66629 4.87914,-0.66632 0.55883,3e-5 1.13916,0.0287 1.74101,0.086 0.61615,0.043 1.21798,0.1075 1.80549,0.19344 0.60182,0.0717 1.17499,0.16482 1.71952,0.27943 0.55883,0.10033 1.06752,0.2078 1.52608,0.32241 l 0,4.83614 c -0.45856,-0.17193 -0.96009,-0.32955 -1.50458,-0.47287 -0.54453,-0.14326 -1.11054,-0.26506 -1.69803,-0.36539 -0.57319,-0.11461 -1.15352,-0.20059 -1.74101,-0.25793 -0.58752,-0.0573 -1.14636,-0.086 -1.67653,-0.086 -0.93142,3e-5 -1.71953,0.0788 -2.36434,0.23644 -0.64483,0.14331 -1.17501,0.35109 -1.59056,0.62332 -0.41555,0.25795 -0.71647,0.58036 -0.90274,0.96723 -0.18629,0.38692 -0.27943,0.8168 -0.27942,1.28964 -1e-5,0.58752 0.19343,1.09621 0.58033,1.52607 0.40122,0.41557 0.92424,0.7953 1.56906,1.13919 0.65914,0.32959 1.3971,0.64483 2.21389,0.94573 0.83108,0.28661 1.67651,0.60185 2.53629,0.94574 0.87407,0.32959 1.7195,0.70931 2.53629,1.13918 0.83108,0.42989 1.56904,0.95291 2.21388,1.56906 0.65913,0.61617 1.18215,1.34697 1.56906,2.19239 0.4012,0.83111 0.60181,1.81983 0.60183,2.96617"
           style=""
           id="path3063" />
        <path
           d="m 387.04224,386.77085 0,-4.08386 6.42671,0 0,-31.70363 -6.42671,0 0,-4.08386 11.26285,0 0,39.87135 -11.26285,0"
           style=""
           id="path3065" />
      </g>
    </g>
  </g>
</svg>
